<?xml version="1.0" encoding="UTF-8"?>
<svg version="1.1" xmlns="http://www.w3.org/2000/svg" width="1600" height="1600">
<path d="M0 0 C115.5 0 231 0 350 0 C350 16.5 350 33 350 50 C383 50 416 50 450 50 C450 66.5 450 83 450 100 C466.5 100 483 100 500 100 C500 116.5 500 133 500 150 C533 150 566 150 600 150 C600 183 600 216 600 250 C616.5 250 633 250 650 250 C650 266.5 650 283 650 300 C666.5 300 683 300 700 300 C700 333 700 366 700 400 C716.5 400 733 400 750 400 C750 515.5 750 631 750 750 C733.5 750 717 750 700 750 C700 783 700 816 700 850 C683.5 850 667 850 650 850 C650 866.5 650 883 650 900 C633.5 900 617 900 600 900 C600 933 600 966 600 1000 C567 1000 534 1000 500 1000 C500 1016.5 500 1033 500 1050 C483.5 1050 467 1050 450 1050 C450 1066.5 450 1083 450 1100 C417 1100 384 1100 350 1100 C350 1116.5 350 1133 350 1150 C234.5 1150 119 1150 0 1150 C0 1133.5 0 1117 0 1100 C-33 1100 -66 1100 -100 1100 C-100 1083.5 -100 1067 -100 1050 C-116.5 1050 -133 1050 -150 1050 C-150 1033.5 -150 1017 -150 1000 C-183 1000 -216 1000 -250 1000 C-250 967 -250 934 -250 900 C-266.5 900 -283 900 -300 900 C-300 883.5 -300 867 -300 850 C-316.5 850 -333 850 -350 850 C-350 817 -350 784 -350 750 C-366.5 750 -383 750 -400 750 C-400 634.5 -400 519 -400 400 C-383.5 400 -367 400 -350 400 C-350 367 -350 334 -350 300 C-333.5 300 -317 300 -300 300 C-300 283.5 -300 267 -300 250 C-283.5 250 -267 250 -250 250 C-250 217 -250 184 -250 150 C-217 150 -184 150 -150 150 C-150 133.5 -150 117 -150 100 C-133.5 100 -117 100 -100 100 C-100 83.5 -100 67 -100 50 C-67 50 -34 50 0 50 C0 33.5 0 17 0 0 Z " fill="#FA6161" transform="translate(600,200)"/>
<path d="M0 0 C49.5 0 99 0 150 0 C150 16.5 150 33 150 50 C199.5 50 249 50 300 50 C300 33.5 300 17 300 0 C349.5 0 399 0 450 0 C450 16.5 450 33 450 50 C466.5 50 483 50 500 50 C500 132.5 500 215 500 300 C483.5 300 467 300 450 300 C450 316.5 450 333 450 350 C417 350 384 350 350 350 C350 333.5 350 317 350 300 C333.5 300 317 300 300 300 C300 283.5 300 267 300 250 C250.5 250 201 250 150 250 C150 266.5 150 283 150 300 C133.5 300 117 300 100 300 C100 316.5 100 333 100 350 C67 350 34 350 0 350 C0 333.5 0 317 0 300 C-16.5 300 -33 300 -50 300 C-50 217.5 -50 135 -50 50 C-33.5 50 -17 50 0 50 C0 33.5 0 17 0 0 Z " fill="#000000" transform="translate(550,700)"/>
<path d="M0 0 C16.5 0 33 0 50 0 C50 16.5 50 33 50 50 C83 50 116 50 150 50 C150 33.5 150 17 150 0 C183 0 216 0 250 0 C250 16.5 250 33 250 50 C299.5 50 349 50 400 50 C400 33.5 400 17 400 0 C433 0 466 0 500 0 C500 16.5 500 33 500 50 C533 50 566 50 600 50 C600 33.5 600 17 600 0 C616.5 0 633 0 650 0 C650 148.5 650 297 650 450 C633.5 450 617 450 600 450 C600 466.5 600 483 600 500 C418.5 500 237 500 50 500 C50 483.5 50 467 50 450 C33.5 450 17 450 0 450 C0 301.5 0 153 0 0 Z M100 100 C100 116.5 100 133 100 150 C83.5 150 67 150 50 150 C50 232.5 50 315 50 400 C66.5 400 83 400 100 400 C100 416.5 100 433 100 450 C133 450 166 450 200 450 C200 433.5 200 417 200 400 C216.5 400 233 400 250 400 C250 383.5 250 367 250 350 C299.5 350 349 350 400 350 C400 366.5 400 383 400 400 C416.5 400 433 400 450 400 C450 416.5 450 433 450 450 C483 450 516 450 550 450 C550 433.5 550 417 550 400 C566.5 400 583 400 600 400 C600 317.5 600 235 600 150 C583.5 150 567 150 550 150 C550 133.5 550 117 550 100 C500.5 100 451 100 400 100 C400 116.5 400 133 400 150 C350.5 150 301 150 250 150 C250 133.5 250 117 250 100 C200.5 100 151 100 100 100 Z " fill="#E6F5F6" transform="translate(450,600)"/>
<path d="M0 0 C16.5 0 33 0 50 0 C50 16.5 50 33 50 50 C66.5 50 83 50 100 50 C100 33.5 100 17 100 0 C133 0 166 0 200 0 C200 16.5 200 33 200 50 C233 50 266 50 300 50 C300 33.5 300 17 300 0 C349.5 0 399 0 450 0 C450 16.5 450 33 450 50 C483 50 516 50 550 50 C550 33.5 550 17 550 0 C616 0 682 0 750 0 C750 181.5 750 363 750 550 C733.5 550 717 550 700 550 C700 401.5 700 253 700 100 C683.5 100 667 100 650 100 C650 116.5 650 133 650 150 C617 150 584 150 550 150 C550 133.5 550 117 550 100 C517 100 484 100 450 100 C450 116.5 450 133 450 150 C400.5 150 351 150 300 150 C300 133.5 300 117 300 100 C267 100 234 100 200 100 C200 116.5 200 133 200 150 C167 150 134 150 100 150 C100 133.5 100 117 100 100 C83.5 100 67 100 50 100 C50 248.5 50 397 50 550 C33.5 550 17 550 0 550 C0 368.5 0 187 0 0 Z " fill="#FA6161" transform="translate(400,500)"/>
<path d="M0 0 C16.5 0 33 0 50 0 C50 49.5 50 99 50 150 C66.5 150 83 150 100 150 C100 166.5 100 183 100 200 C133 200 166 200 200 200 C200 183.5 200 167 200 150 C216.5 150 233 150 250 150 C250 133.5 250 117 250 100 C299.5 100 349 100 400 100 C400 116.5 400 133 400 150 C416.5 150 433 150 450 150 C450 166.5 450 183 450 200 C483 200 516 200 550 200 C550 183.5 550 167 550 150 C566.5 150 583 150 600 150 C600 100.5 600 51 600 0 C616.5 0 633 0 650 0 C650 66 650 132 650 200 C633.5 200 617 200 600 200 C600 216.5 600 233 600 250 C418.5 250 237 250 50 250 C50 233.5 50 217 50 200 C33.5 200 17 200 0 200 C0 134 0 68 0 0 Z " fill="#9BDEE3" transform="translate(450,850)"/>
<path d="M0 0 C181.5 0 363 0 550 0 C550 16.5 550 33 550 50 C517 50 484 50 450 50 C450 66.5 450 83 450 100 C417 100 384 100 350 100 C350 83.5 350 67 350 50 C300.5 50 251 50 200 50 C200 66.5 200 83 200 100 C167 100 134 100 100 100 C100 83.5 100 67 100 50 C67 50 34 50 0 50 C0 33.5 0 17 0 0 Z " fill="#FFA9A9" transform="translate(500,450)"/>
<path d="M0 0 C16.5 0 33 0 50 0 C50 181.5 50 363 50 550 C33.5 550 17 550 0 550 C0 401.5 0 253 0 100 C-16.5 100 -33 100 -50 100 C-50 83.5 -50 67 -50 50 C-33.5 50 -17 50 0 50 C0 33.5 0 17 0 0 Z " fill="#000000" transform="translate(1100,500)"/>
<path d="M0 0 C16.5 0 33 0 50 0 C50 16.5 50 33 50 50 C66.5 50 83 50 100 50 C100 66.5 100 83 100 100 C83.5 100 67 100 50 100 C50 248.5 50 397 50 550 C33.5 550 17 550 0 550 C0 368.5 0 187 0 0 Z " fill="#000000" transform="translate(400,500)"/>
<path d="M0 0 C181.5 0 363 0 550 0 C550 16.5 550 33 550 50 C368.5 50 187 50 0 50 C0 33.5 0 17 0 0 Z " fill="#000000" transform="translate(500,1100)"/>
<path d="M0 0 C181.5 0 363 0 550 0 C550 16.5 550 33 550 50 C368.5 50 187 50 0 50 C0 33.5 0 17 0 0 Z " fill="#000000" transform="translate(500,400)"/>
<path d="M0 0 C33 0 66 0 100 0 C100 16.5 100 33 100 50 C133 50 166 50 200 50 C200 66.5 200 83 200 100 C167 100 134 100 100 100 C100 116.5 100 133 100 150 C67 150 34 150 0 150 C0 100.5 0 51 0 0 Z " fill="#FF5C5C" transform="translate(500,500)"/>
<path d="M0 0 C49.5 0 99 0 150 0 C150 16.5 150 33 150 50 C133.5 50 117 50 100 50 C100 83 100 116 100 150 C67 150 34 150 0 150 C0 100.5 0 51 0 0 Z " fill="#FA6161" transform="translate(950,500)"/>
<path d="M0 0 C16.5 0 33 0 50 0 C50 16.5 50 33 50 50 C66.5 50 83 50 100 50 C100 66.5 100 83 100 100 C50.5 100 1 100 -50 100 C-50 83.5 -50 67 -50 50 C-33.5 50 -17 50 0 50 C0 33.5 0 17 0 0 Z " fill="#FA6161" transform="translate(750,800)"/>
<path d="M0 0 C49.5 0 99 0 150 0 C150 16.5 150 33 150 50 C100.5 50 51 50 0 50 C0 33.5 0 17 0 0 Z " fill="#000000" transform="translate(700,600)"/>
<path d="M0 0 C33 0 66 0 100 0 C100 16.5 100 33 100 50 C67 50 34 50 0 50 C0 33.5 0 17 0 0 Z " fill="#000000" transform="translate(950,600)"/>
<path d="M0 0 C33 0 66 0 100 0 C100 16.5 100 33 100 50 C67 50 34 50 0 50 C0 33.5 0 17 0 0 Z " fill="#000000" transform="translate(500,600)"/>
<path d="M0 0 C33 0 66 0 100 0 C100 16.5 100 33 100 50 C67 50 34 50 0 50 C0 33.5 0 17 0 0 Z " fill="#000000" transform="translate(850,550)"/>
<path d="M0 0 C33 0 66 0 100 0 C100 16.5 100 33 100 50 C67 50 34 50 0 50 C0 33.5 0 17 0 0 Z " fill="#000000" transform="translate(600,550)"/>
<path d="M0 0 C33 0 66 0 100 0 C100 16.5 100 33 100 50 C67 50 34 50 0 50 C0 33.5 0 17 0 0 Z " fill="#FF9797" transform="translate(850,500)"/>
<path d="M0 0 C33 0 66 0 100 0 C100 16.5 100 33 100 50 C67 50 34 50 0 50 C0 33.5 0 17 0 0 Z " fill="#FF9797" transform="translate(600,500)"/>
<path d="M0 0 C33 0 66 0 100 0 C100 16.5 100 33 100 50 C67 50 34 50 0 50 C0 33.5 0 17 0 0 Z " fill="#FF9797" transform="translate(950,450)"/>
<path d="M0 0 C33 0 66 0 100 0 C100 16.5 100 33 100 50 C67 50 34 50 0 50 C0 33.5 0 17 0 0 Z " fill="#FFC5C5" transform="translate(850,450)"/>
<path d="M0 0 C33 0 66 0 100 0 C100 16.5 100 33 100 50 C67 50 34 50 0 50 C0 33.5 0 17 0 0 Z " fill="#FF9797" transform="translate(500,450)"/>
<path d="M0 0 C16.5 0 33 0 50 0 C50 16.5 50 33 50 50 C33.5 50 17 50 0 50 C0 33.5 0 17 0 0 Z " fill="#000000" transform="translate(1050,1050)"/>
<path d="M0 0 C16.5 0 33 0 50 0 C50 16.5 50 33 50 50 C33.5 50 17 50 0 50 C0 33.5 0 17 0 0 Z " fill="#000000" transform="translate(450,1050)"/>
<path d="M0 0 C16.5 0 33 0 50 0 C50 16.5 50 33 50 50 C33.5 50 17 50 0 50 C0 33.5 0 17 0 0 Z " fill="#FF9797" transform="translate(1050,500)"/>
<path d="M0 0 C16.5 0 33 0 50 0 C50 16.5 50 33 50 50 C33.5 50 17 50 0 50 C0 33.5 0 17 0 0 Z " fill="#FF9797" transform="translate(450,500)"/>
<path d="M0 0 C16.5 0 33 0 50 0 C50 16.5 50 33 50 50 C33.5 50 17 50 0 50 C0 33.5 0 17 0 0 Z " fill="#000000" transform="translate(1050,450)"/>
<path d="M0 0 C16.5 0 33 0 50 0 C50 16.5 50 33 50 50 C33.5 50 17 50 0 50 C0 33.5 0 17 0 0 Z " fill="#000000" transform="translate(450,450)"/>
</svg>
