<?xml version="1.0" encoding="utf-8"?>
<!-- Generator: Adobe Illustrator 25.0.1, SVG Export Plug-In . SVG Version: 6.00 Build 0)  -->
<svg version="1.0" id="katman_1" xmlns="http://www.w3.org/2000/svg" xmlns:xlink="http://www.w3.org/1999/xlink" x="0px" y="0px"
	 viewBox="0 0 800 600" style="enable-background:new 0 0 800 600;" xml:space="preserve">
<style type="text/css">
	.st0{fill:#BA271B;}
	.st1{fill:#EA514C;}
	.st2{fill:#D22D20;}
	.st3{fill:#E93324;}
	.st4{fill-rule:evenodd;clip-rule:evenodd;fill:#FFFFFF;}
</style>
<path class="st0" d="M316.8,69.7h165.8v18.4h36.8v18.4h18.4V125h18.4v18.4h18.4v18.4h18.4v18.4h18.4v36.8H630v165.8h-18.4v36.8
	h-18.4v18.4h-18.4v18.4h-18.4V475h-18.4v18.4h-18.4v18.4h-36.8v18.4H316.8v-18.4H280v-18.4h-18.4V475h-18.4v-18.4h-18.4v-18.4h-18.4
	v-18.4h-18.4v-36.8h-18.4V217.1h18.4v-36.8h18.4v-18.4h18.4v-18.4h18.4V125h18.4v-18.4H280V88.1h36.8V69.7z"/>
<path class="st1" d="M206.3,217.1h-18.4v165.8h18.4v36.8h18.4v18.4h18.4v18.4h18.4V475H280v18.4h36.8v18.4h165.8v-18.4h36.8V475
	h18.4v-18.4h18.4v-18.4h18.4v-18.4h18.4v-36.8h18.4V217.1h-18.4v-36.8h-18.4v-18.4h-18.4v-18.4h-18.4V125h-18.4v-18.4h-36.8V88.1
	H316.8v18.4H280V125h-18.4v18.4h-18.4v18.4h-18.4v18.4h-18.4V217.1z"/>
<path class="st1" d="M206.3,217.1h-18.4v165.8h18.4v36.8h18.4v18.4h18.4v18.4h18.4V475H280v18.4h36.8v18.4h165.8v-18.4h36.8V475
	h18.4v-18.4h18.4v-18.4h18.4v-18.4h18.4v-36.8h18.4V217.1h-18.4v-36.8h-18.4v-18.4h-18.4v-18.4h-18.4V125h-18.4v-18.4h-36.8V88.1
	H316.8v18.4H280V125h-18.4v18.4h-18.4v18.4h-18.4v18.4h-18.4V217.1z"/>
<path class="st2" d="M206.3,217.1v202.6h18.4v18.4h18.4v18.4h18.4V475H280v18.4h36.8v18.4h165.8v-18.4h36.8V475h18.4v-18.4h18.4
	v-18.4h18.4v-18.4h18.4v-36.8h18.4V217.1h-18.4v-36.8h-18.4v-18.4h-36.8v-18.4h-18.4V125h-36.8v-18.4H316.8V125H280v18.4h-18.4v18.4
	h-18.4v18.4h-18.4v36.8H206.3z"/>
<path class="st3" d="M593.2,382.9h-18.4v36.8h-18.4v18.4h-18.4v18.4h-18.4V475h-36.8v18.4H316.8V475H280v-18.4h-18.4v-18.4h-18.4
	v-18.4h-36.8V217.1h18.4v-36.8h18.4v-18.4h18.4v-18.4H280V125h36.8v-18.4h165.8V125h36.8v18.4h18.4v18.4h36.8v18.4h18.4V382.9z"/>
<path class="st4" d="M280,401.3v-18.4h-18.4v-18.4h-18.4v-129h18.4v-18.4H280v-18.4h239.5v18.4h18.4v18.4h18.4v129h-18.4v18.4h-18.4
	v18.4H280z M372.1,346v-92.1h18.4v18.4h36.8v18.4h18.4v18.4h-18.4v18.4h-36.8V346H372.1z"/>
</svg>
